<?xml version="1.0" standalone="no"?>
<!DOCTYPE svg PUBLIC "-//W3C//DTD SVG 20010904//EN"
 "http://www.w3.org/TR/2001/REC-SVG-20010904/DTD/svg10.dtd">
<svg version="1.0" xmlns="http://www.w3.org/2000/svg"
 width="512.000000pt" height="512.000000pt" viewBox="0 0 512.000000 512.000000"
 preserveAspectRatio="xMidYMid meet">

<g transform="translate(0.000000,512.000000) scale(0.100000,-0.100000)"
fill="#000000" stroke="none">
<path d="M855 4700 c-199 -27 -361 -167 -422 -365 -17 -57 -18 -139 -18 -1775
0 -1636 1 -1718 18 -1775 53 -171 181 -299 352 -352 57 -17 139 -18 1775 -18
l1715 0 71 22 c165 52 289 179 341 348 17 57 18 139 18 1775 l0 1715 -22 71
c-51 160 -171 282 -333 337 l-65 22 -1685 1 c-927 1 -1712 -2 -1745 -6z m2760
-1034 c33 -9 85 -29 115 -44 l55 -27 3 -211 2 -212 -177 -4 c-193 -5 -231 -13
-286 -65 -40 -39 -47 -79 -47 -265 l0 -168 255 0 c204 0 255 -3 255 -13 0 -12
-82 -429 -95 -484 -5 -23 -6 -23 -210 -23 l-205 0 0 -770 0 -770 -260 0 -260
0 0 770 0 770 -205 0 -205 0 0 260 0 260 205 0 205 0 0 184 c0 217 11 309 50
428 70 209 203 337 405 390 87 22 306 19 400 -6z"/>
</g>
</svg>
